#define repeat_width 8
#define repeat_height 8
static unsigned char repeat_bits[] = {
   0x1c, 0xe6, 0x63, 0xa1, 0x85, 0xc6, 0x67, 0x38 };
